<mxfile host="app.diagrams.net" modified="2023-05-29T14:23:30.221Z" agent="Mozilla/5.0 (Windows NT 10.0; Win64; x64) AppleWebKit/537.36 (KHTML, like Gecko) Chrome/113.0.0.0 Safari/537.36 Edg/113.0.1774.50" version="21.3.4" etag="zTVsBHM5UzdXA2zibD2q" type="github">
  <diagram name="페이지-1" id="2ZSXfnHeZHrn1OG8zvaT">
    <mxGraphModel>
      <root>
        <mxCell id="0" />
        <mxCell id="1" parent="0" />
      </root>
    </mxGraphModel>
  </diagram>
</mxfile>
